<svg width="32" height="32" viewBox="0 0 32 32" fill="none" xmlns="http://www.w3.org/2000/svg">
<g clip-path="url(#clip0_431_1866)">
<path d="M28 10.667V27.991C28.0012 28.1661 27.968 28.3397 27.9021 28.502C27.8362 28.6642 27.739 28.8119 27.6161 28.9365C27.4931 29.0612 27.3468 29.1605 27.1855 29.2286C27.0242 29.2967 26.8511 29.3324 26.676 29.3337H5.324C4.97308 29.3337 4.63652 29.1943 4.38826 28.9463C4.14 28.6983 4.00035 28.3619 4 28.011V3.98966C4 3.27366 4.59867 2.66699 5.336 2.66699H19.996L28 10.667ZM25.3333 12.0003H18.6667V5.33366H6.66667V26.667H25.3333V12.0003ZM10.6667 9.33366H14.6667V12.0003H10.6667V9.33366ZM10.6667 14.667H21.3333V17.3337H10.6667V14.667ZM10.6667 20.0003H21.3333V22.667H10.6667V20.0003Z" fill="white"/>
</g>
<defs>
<clipPath id="clip0_431_1866">
<rect width="32" height="32" fill="white"/>
</clipPath>
</defs>
</svg>
