<svg width="42" height="42" viewBox="0 0 42 42" fill="none" xmlns="http://www.w3.org/2000/svg">
<mask id="mask0_498_3089" style="mask-type:luminance" maskUnits="userSpaceOnUse" x="0" y="0" width="42" height="42">
<path d="M42 0H0V42H42V0Z" fill="white"/>
</mask>
<g mask="url(#mask0_498_3089)">
<path d="M21 42C32.5983 42 42 32.5983 42 21C42 9.40205 32.5983 0 21 0C9.40205 0 0 9.40205 0 21C0 32.5983 9.40205 42 21 42Z" fill="#92AF50"/>
<path d="M27.5202 19.5231L18.6952 13.4717C18.2989 13.1835 17.8667 13.0394 17.5425 13.0394C16.8581 13.0394 16.4619 13.5798 16.4619 14.4442V27.5198C16.4619 28.42 16.8581 28.9247 17.5065 28.9247C17.8667 28.9247 18.2629 28.7805 18.6591 28.4921L27.4838 22.4408C28.0606 22.0446 28.3847 21.5403 28.3847 20.9639C28.3847 20.3876 28.0963 19.9194 27.5202 19.5231Z" fill="white"/>
</g>
</svg>
